arm26_states
version=1
nRows=9
nColumns=17
inDegrees=yes

# SIMM Motion File Header:
name arm26_states
datacolumns 17
datarows 9
otherdata 1
range 0.980000 1.000000
endheader
time	/jointset/r_shoulder/r_shoulder_elev/value	/jointset/r_shoulder/r_shoulder_elev/speed	/jointset/r_elbow/r_elbow_flex/value	/jointset/r_elbow/r_elbow_flex/speed	/forceset/TRIlong/activation	/forceset/TRIlong/fiber_length	/forceset/TRIlat/activation	/forceset/TRIlat/fiber_length	/forceset/TRImed/activation	/forceset/TRImed/fiber_length	/forceset/BIClong/activation	/forceset/BIClong/fiber_length	/forceset/BICshort/activation	/forceset/BICshort/fiber_length	/forceset/BRA/activation	/forceset/BRA/fiber_length
      0.98000000	     12.43066028	     28.34253763	   -120.21763502	    -98.64748030	      0.04131266	      0.17477600	     -1.22093291	      0.10186908	    315.60031981	      0.09406381	      0.45475006	      0.09260746	     -0.68630441	      0.09875928	     86.88920117	      0.04908783
      0.98116461	     12.46345028	     27.96712386	   -120.33249199	    -98.59784921	      0.04151479	      0.17482942	     -1.22207303	      0.10190351	    315.96631117	      0.09409800	      0.45593533	      0.09249602	     -0.68790890	      0.09866500	     87.11660621	      0.04904554
      0.98313773	     12.51799413	     27.31675639	   -120.52695538	    -98.51537327	      0.04177456	      0.17491871	     -1.22400465	      0.10196172	    316.58638584	      0.09415583	      0.45769234	      0.09230673	     -0.69062727	      0.09850519	     87.50188337	      0.04897402
      0.98568805	     12.58656502	     26.45370462	   -120.77808095	    -98.42495577	      0.04199982	      0.17503313	     -1.22650134	      0.10203674	    317.38785288	      0.09423036	      0.45956639	      0.09206190	     -0.69414086	      0.09829857	     87.99986684	      0.04888184
      0.98880190	     12.66726221	     25.37268748	   -121.08444071	    -98.35530710	      0.04216673	      0.17517146	     -1.22954970	      0.10212797	    318.36641370	      0.09432104	      0.46136723	      0.09176375	     -0.69843082	      0.09804618	     88.60788575	      0.04876971
      0.99191575	     12.74455255	     24.26635922	   -121.39066110	    -98.33580721	      0.04226273	      0.17530744	     -1.23259806	      0.10221885	    319.34497453	      0.09441137	      0.46275128	      0.09146721	     -0.70272078	      0.09779357	     89.21590466	      0.04865802
      0.99425937	     12.80043015	     23.41575010	   -121.62113393	    -98.34824992	      0.04230699	      0.17540880	     -1.23489239	      0.10228704	    320.08148374	      0.09447914	      0.46357798	      0.09124532	     -0.70594960	      0.09760322	     89.67352724	      0.04857422
      0.99660300	     12.85429657	     22.55000011	   -121.85165909	    -98.37964305	      0.04233620	      0.17550849	     -1.23718673	      0.10235508	    320.81799295	      0.09454673	      0.46425685	      0.09102463	     -0.70917841	      0.09741261	     90.13114982	      0.04849063
      1.00000000	     12.92872598	     21.26374117	   -122.18596054	    -98.44349693	      0.04236183	      0.17565097	     -1.24051228	      0.10245344	    321.88553785	      0.09464440	      0.46503162	      0.09070685	     -0.71385847	      0.09713580	     90.79445809	      0.04836981
